<?xml version="1.0" standalone="no"?>
<!DOCTYPE svg PUBLIC "-//W3C//DTD SVG 20010904//EN"
 "http://www.w3.org/TR/2001/REC-SVG-20010904/DTD/svg10.dtd">
<svg version="1.0" xmlns="http://www.w3.org/2000/svg"
 width="700.000000pt" height="700.000000pt" viewBox="0 0 700.000000 700.000000"
 preserveAspectRatio="xMidYMid meet">
<metadata>
Created by potrace 1.11, written by Peter Selinger 2001-2013
</metadata>
<g transform="translate(0.000000,700.000000) scale(0.100000,-0.100000)"
fill="#000000" stroke="none">
<path d="M3510 6985 c-19 -23 -21 -153 -25 -1870 -1 -869 -3 -1582 -4 -1585
-1 -3 -758 -5 -1684 -5 -925 0 -1708 -2 -1739 -3 -53 -4 -58 -6 -58 -27 0 -25
8 -29 75 -41 22 -4 49 -8 60 -10 11 -2 40 -7 65 -10 25 -3 47 -8 50 -9 3 -2
24 -6 46 -9 44 -7 54 -9 164 -31 41 -8 86 -17 100 -19 14 -2 57 -12 95 -21 39
-9 77 -18 85 -20 8 -2 51 -12 95 -23 319 -80 628 -187 860 -297 80 -38 325
-173 335 -184 3 -3 43 -32 90 -63 479 -321 832 -823 1059 -1505 62 -186 174
-639 214 -863 6 -29 15 -82 22 -125 3 -16 8 -66 11 -110 8 -91 17 -125 38
-125 45 0 44 -33 47 1972 l2 1498 726 0 c1615 1 2751 5 2752 10 0 3 2 13 4 22
3 19 -12 35 -35 35 -8 0 -94 15 -190 33 -96 17 -186 34 -200 36 -14 2 -70 14
-125 25 -55 12 -107 22 -115 24 -61 13 -246 61 -350 90 -152 44 -142 41 -160
47 -8 3 -58 20 -110 38 -307 103 -630 263 -854 423 -63 45 -97 71 -185 142
-58 47 -243 236 -303 310 -229 281 -412 627 -549 1035 -51 153 -151 541 -183
710 -3 14 -17 86 -31 160 -14 74 -29 173 -32 220 -7 115 -31 163 -63 125z"/>
</g>
</svg>
