<?xml version="1.0" standalone="no"?>
<!DOCTYPE svg PUBLIC "-//W3C//DTD SVG 20010904//EN"
 "http://www.w3.org/TR/2001/REC-SVG-20010904/DTD/svg10.dtd">
<svg version="1.0" xmlns="http://www.w3.org/2000/svg"
 width="700.000000pt" height="700.000000pt" viewBox="0 0 700.000000 700.000000"
 preserveAspectRatio="xMidYMid meet">
<metadata>
Created by potrace 1.11, written by Peter Selinger 2001-2013
</metadata>
<g transform="translate(0.000000,700.000000) scale(0.100000,-0.100000)"
fill="#000000" stroke="none">
<path d="M3502 6991 c-7 -4 -15 -34 -18 -67 -3 -32 -7 -808 -9 -1723 -3 -915
-7 -1666 -10 -1669 -2 -2 -762 -6 -1687 -8 -926 -1 -1705 -3 -1731 -3 -46 -1
-48 -2 -45 -28 2 -14 10 -27 18 -28 24 -4 253 -44 276 -49 12 -2 37 -7 55 -10
74 -12 370 -76 464 -101 55 -14 111 -28 125 -31 37 -7 149 -41 300 -92 828
-275 1363 -712 1708 -1398 144 -284 214 -477 307 -839 89 -346 149 -643 160
-796 6 -88 17 -119 40 -119 39 0 39 -18 43 1755 2 941 5 1711 6 1712 1 1 780
3 1731 5 l1730 3 3 27 c4 32 17 28 -195 63 -171 27 -475 91 -628 130 -55 15
-107 28 -115 30 -44 10 -267 78 -345 106 -362 127 -702 304 -926 481 -19 15
-52 41 -74 58 -57 44 -228 213 -294 291 -345 404 -577 919 -732 1624 -33 151
-77 368 -82 410 -4 22 -8 56 -11 75 -3 19 -8 66 -11 104 -7 84 -21 108 -53 87z"/>
</g>
</svg>
